<svg width="201" height="595" viewBox="0 0 201 595" fill="none" xmlns="http://www.w3.org/2000/svg">
<path d="M199.96 399.268C147.772 399.268 105.436 360.244 105.076 311.968H82.4198C49.1318 311.968 22.1438 286.972 22.1438 256.132C22.1438 225.292 49.1318 200.296 82.4198 200.296H200.032V399.256C200.032 399.256 199.984 399.256 199.972 399.256L199.96 399.268Z" fill="white" stroke="#323232" stroke-miterlimit="10"/>
<mask id="mask0_151_68" style="mask-type:luminance" maskUnits="userSpaceOnUse" x="1" y="199" width="200" height="396">
<path d="M1 199H201V595H1V199Z" fill="white"/>
</mask>
<g mask="url(#mask0_151_68)">
<path d="M-172.592 383.92H-69.4038C-69.2958 383.92 -69.2598 383.788 -69.3558 383.728L-159.26 331.816C-168.116 326.704 -171.152 315.388 -166.04 306.532C-160.928 297.676 -149.612 294.64 -140.756 299.752L-59.5878 346.612C-59.4918 346.66 -59.3958 346.552 -59.4558 346.468L-111.404 268.456C-117.068 259.948 -114.764 248.452 -106.256 242.788C-97.7478 237.124 -86.2518 239.428 -80.5878 247.936L-18.6438 340.948C-18.5838 341.032 -18.4638 340.996 -18.4638 340.888V229.756C-18.4638 218.692 -9.40382 209.764 1.62418 210.688C11.1162 211.492 18.5562 219.436 18.5562 229.132V338.608C18.5562 338.704 18.6882 338.752 18.7362 338.668L77.5962 246.364C83.0922 237.748 94.5402 235.216 103.156 240.712C111.772 246.208 114.304 257.656 108.808 266.272L54.6641 351.184C54.6041 351.268 54.7002 351.376 54.7962 351.328L143.128 302.956C152.092 298.048 163.348 301.336 168.256 310.3C173.164 319.264 169.876 330.52 160.912 335.428L72.7362 383.716C72.6402 383.764 72.6761 383.908 72.7841 383.908H172.696C183.76 383.908 192.688 392.968 191.764 403.996C190.96 413.488 183.016 420.928 173.32 420.928H69.5081C69.4001 420.928 69.3642 421.06 69.4602 421.12L159.364 473.032C168.22 478.144 171.256 489.46 166.144 498.316C161.032 507.172 149.716 510.208 140.86 505.096L59.6921 458.236C59.5961 458.188 59.5002 458.296 59.5602 458.38L111.508 536.392C117.172 544.9 114.868 556.396 106.36 562.06C97.8522 567.724 86.356 565.42 80.692 556.912L18.7482 463.9C18.6882 463.816 18.5682 463.852 18.5682 463.96V575.092C18.5682 586.156 9.50816 595.084 -1.51984 594.16C-11.0118 593.356 -18.4518 585.412 -18.4518 575.716V466.24C-18.4518 466.144 -18.5838 466.096 -18.6438 466.18L-77.1678 557.956C-83.1198 567.28 -95.5638 569.944 -104.36 563.236C-111.932 557.464 -113.936 546.748 -108.728 538.576L-54.5838 453.664C-54.5238 453.58 -54.6198 453.472 -54.7158 453.52L-143.048 501.892C-152.012 506.8 -163.268 503.512 -168.176 494.548C-173.084 485.584 -169.796 474.328 -160.832 469.42L-72.6558 421.132C-72.5598 421.084 -72.5958 420.94 -72.7038 420.94H-173.24C-182.936 420.94 -190.892 413.488 -191.684 404.008C-192.608 392.98 -183.68 383.92 -172.616 383.92H-172.592Z" fill="#323232" stroke="#323232" stroke-miterlimit="10"/>
<path d="M-71.1798 402.388C-51.2838 380.752 -25.6878 369.856 -0.0197983 370.012C-0.0197983 370.012 0.040149 370.012 0.076149 370.012C0.112149 370.012 0.136173 370.012 0.172173 370.012C25.8402 369.856 51.4242 380.764 71.3322 402.4V402.484C51.4362 424.12 25.8402 435.016 0.172173 434.86C0.172173 434.86 0.112149 434.86 0.076149 434.86C0.040149 434.86 0.0162017 434.86 -0.0197983 434.86C-25.6878 435.016 -51.2718 424.108 -71.1798 402.484L-71.2158 402.436L-71.1798 402.388Z" fill="white" stroke="#323232" stroke-miterlimit="10"/>
<path d="M0.0762863 427.912C-13.9938 427.912 -25.3997 416.506 -25.3997 402.436C-25.3997 388.366 -13.9938 376.96 0.0762863 376.96C14.1463 376.96 25.5523 388.366 25.5523 402.436C25.5523 416.506 14.1463 427.912 0.0762863 427.912Z" fill="#323232" stroke="#323232" stroke-miterlimit="10"/>
<path d="M14.1042 398.116C10.3597 398.116 7.32422 395.08 7.32422 391.336C7.32422 387.592 10.3597 384.556 14.1042 384.556C17.8486 384.556 20.8842 387.592 20.8842 391.336C20.8842 395.08 17.8486 398.116 14.1042 398.116Z" fill="white" stroke="#323232" stroke-miterlimit="10"/>
</g>
<mask id="mask1_151_68" style="mask-type:luminance" maskUnits="userSpaceOnUse" x="0" y="1" width="201" height="200">
<path d="M0.904053 1H200.176V200.272H0.904053V1Z" fill="white"/>
</mask>
<g mask="url(#mask1_151_68)">
<path d="M101.26 -39.152C56.8962 -76.268 -6.51185 -75.632 -49.9398 -40.724C-53.0718 -38.204 -56.0958 -35.504 -59.0118 -32.624C-61.6998 -29.96 -64.3038 -27.164 -66.7878 -24.212C-69.2718 -21.248 -71.5638 -18.2 -73.6998 -15.08C-76.0158 -11.708 -78.1398 -8.25205 -80.0718 -4.72405C-106.772 44.176 -96.2118 106.708 -51.8478 143.824C-7.48381 180.94 55.9242 180.304 99.3522 145.396C102.484 142.876 105.508 140.176 108.424 137.296C111.112 134.632 113.716 131.836 116.2 128.872C118.684 125.908 120.976 122.86 123.112 119.74C125.428 116.368 127.552 112.912 129.484 109.384C156.184 60.484 145.624 -2.04805 101.26 -39.164V-39.152Z" fill="#E5D9B6"/>
<mask id="mask2_151_68" style="mask-type:luminance" maskUnits="userSpaceOnUse" x="-95" y="-67" width="239" height="239">
<path d="M101.26 -39.152C56.8962 -76.268 -6.51185 -75.632 -49.9398 -40.724C-53.0718 -38.204 -56.0958 -35.504 -59.0118 -32.624C-61.6998 -29.96 -64.3038 -27.164 -66.7878 -24.212C-69.2718 -21.248 -71.5638 -18.2 -73.6998 -15.08C-76.0158 -11.708 -78.1398 -8.25205 -80.0718 -4.72405C-106.772 44.176 -96.2118 106.708 -51.8478 143.824C-7.48381 180.94 55.9242 180.304 99.3522 145.396C102.484 142.876 105.508 140.176 108.424 137.296C111.112 134.632 113.716 131.836 116.2 128.872C118.684 125.908 120.976 122.86 123.112 119.74C125.428 116.368 127.552 112.912 129.484 109.384C156.184 60.484 145.624 -2.04805 101.26 -39.164V-39.152Z" fill="white"/>
</mask>
<g mask="url(#mask2_151_68)">
<path d="M-80.7558 2.33196C-78.6078 -0.788037 -76.3157 -3.83604 -73.8437 -6.80004C-71.3597 -9.76402 -68.7678 -12.56 -66.0678 -15.212C-63.1518 -18.092 -60.1278 -20.792 -56.9958 -23.312C-13.5678 -58.22 49.8402 -58.856 94.2042 -21.74C132.412 10.228 145.516 61.024 131.38 105.748C155.62 57.424 144.532 -2.93604 101.272 -39.14C56.9082 -76.256 -6.4998 -75.62 -49.9278 -40.712C-53.0598 -38.192 -56.0838 -35.492 -58.9998 -32.612C-61.6878 -29.948 -64.2917 -27.152 -66.7757 -24.188C-69.2597 -21.224 -71.5517 -18.176 -73.6877 -15.056C-76.0037 -11.684 -78.1277 -8.22804 -80.0597 -4.70004C-83.7677 2.09196 -86.7318 9.14797 -89.0118 16.372C-88.3998 15.148 -87.7757 13.924 -87.1157 12.712C-85.1837 9.18396 -83.0597 5.72796 -80.7437 2.35596L-80.7558 2.33196Z" fill="white"/>
<path d="M129.94 102.916C127.792 106.036 125.5 109.084 123.028 112.048C120.544 115.012 117.952 117.808 115.252 120.46C112.336 123.34 109.312 126.04 106.18 128.56C62.7521 163.468 -0.655853 164.104 -45.0199 126.988C-83.2279 95.02 -96.3319 44.224 -82.1959 -0.5C-106.436 47.824 -95.3479 108.184 -52.0879 144.388C-7.72387 181.504 55.6841 180.868 99.1121 145.96C102.244 143.44 105.268 140.74 108.184 137.86C110.872 135.196 113.476 132.4 115.96 129.448C118.444 126.484 120.736 123.436 122.872 120.316C125.188 116.944 127.312 113.488 129.244 109.96C132.952 103.168 135.916 96.112 138.196 88.888C137.584 90.112 136.96 91.336 136.3 92.548C134.368 96.076 132.244 99.532 129.928 102.904L129.94 102.916Z" fill="#5F8D4E"/>
</g>
<path d="M101.26 -39.152C56.8962 -76.268 -6.51185 -75.632 -49.9398 -40.724C-53.0718 -38.204 -56.0958 -35.504 -59.0118 -32.624C-61.6998 -29.96 -64.3038 -27.164 -66.7878 -24.212C-69.2718 -21.248 -71.5638 -18.2 -73.6998 -15.08C-76.0158 -11.708 -78.1398 -8.25205 -80.0718 -4.72405C-106.772 44.176 -96.2118 106.708 -51.8478 143.824C-7.48381 180.94 55.9242 180.304 99.3522 145.396C102.484 142.876 105.508 140.176 108.424 137.296C111.112 134.632 113.716 131.836 116.2 128.872C118.684 125.908 120.976 122.86 123.112 119.74C125.428 116.368 127.552 112.912 129.484 109.384C156.184 60.484 145.624 -2.04805 101.26 -39.164V-39.152Z" stroke="#323232" stroke-miterlimit="10"/>
<path d="M129.484 109.408C127.552 112.936 125.428 116.392 123.112 119.764C135.568 134.332 141.628 144.58 138.868 147.868C136.108 151.156 124.96 147.004 108.424 137.308C84.6402 123.376 49.7201 98.008 12.5321 66.892C-24.6559 35.776 -55.7838 5.87199 -73.6998 -15.08C-86.1558 -29.648 -92.2158 -39.896 -89.4558 -43.184C-86.6958 -46.472 -75.5479 -42.32 -59.0119 -32.624C-56.0959 -35.504 -53.0719 -38.204 -49.9399 -40.724C-99.7639 -75.968 -136.292 -95.252 -142.628 -87.68C-148.964 -80.108 -123.548 -47.54 -80.0598 -4.72401C-55.8918 19.084 -26.1558 46.036 6.86813 73.672C39.8922 101.296 71.6681 125.812 99.3641 145.408C149.188 180.652 185.716 199.936 192.052 192.364C198.388 184.792 172.972 152.224 129.484 109.408Z" fill="white" stroke="#323232" stroke-miterlimit="10"/>
<path d="M-59.012 -32.624C-58.04 -33.584 -55.412 -36.536 -54.416 -37.46C-87.296 -59.864 -111.98 -69.536 -116.108 -64.592C-123.488 -55.736 -69.9799 4.228 6.50803 67.936C82.9961 131.644 153.496 174.976 160.876 166.12C164.8 161.416 152.524 140.38 127.048 114.196C126.328 115.324 123.88 118.66 123.112 119.776C135.568 134.344 141.628 144.592 138.868 147.88C136.108 151.18 124.96 147.016 108.424 137.32" stroke="#323232" stroke-width="0.75" stroke-miterlimit="10"/>
</g>
<path d="M1 1H200V200H1V1Z" stroke="#323232" stroke-miterlimit="10"/>
</svg>
