<svg width="503" height="121" viewBox="0 0 503 121" fill="none" xmlns="http://www.w3.org/2000/svg">
<rect x="428" y="30" width="75" height="75" rx="20" fill="#285430"/>
<path d="M466.044 34.3478L470.98 52.0084L485.525 40.5755L478.968 57.7181L497.565 56.8799L482.019 66.9565L497.565 77.0333L478.968 76.1949L485.525 93.3376L470.98 81.9047L466.044 99.5652L461.107 81.9047L446.562 93.3376L453.119 76.1949L434.522 77.0333L450.068 66.9565L434.522 56.8799L453.119 57.7181L446.562 40.5755L461.107 52.0084L466.044 34.3478Z" fill="white"/>
<path fill-rule="evenodd" clip-rule="evenodd" d="M466.043 72.3913C471.411 72.3913 476.068 69.4722 478.386 67.7136C479.32 67.0051 479.32 65.821 478.386 65.1125C476.068 63.3539 471.411 60.4348 466.043 60.4348C460.676 60.4348 456.019 63.3539 453.701 65.1125C452.766 65.821 452.766 67.0051 453.701 67.7136C456.019 69.4722 460.676 72.3913 466.043 72.3913ZM466.043 70.5839C468.754 70.5839 470.952 68.7166 470.952 66.413C470.952 64.1095 468.754 62.2422 466.043 62.2422C463.333 62.2422 461.135 64.1095 461.135 66.413C461.135 68.7166 463.333 70.5839 466.043 70.5839Z" fill="#285430"/>
<path d="M28.7812 98.9844C20.9062 98.9844 14.7656 96.6406 10.3594 91.9531C5.98438 87.2656 3.79688 80.5625 3.79688 71.8438C3.79688 63.4062 6.09375 56.8594 10.6875 52.2031C15.3125 47.5469 21.3906 45.2188 28.9219 45.2188C34.9531 45.2188 40.0469 46.5156 44.2031 49.1094L41.2969 57.875C37.0469 55.6562 33.0938 54.5469 29.4375 54.5469C25.2812 54.5469 22 56.0312 19.5938 59C17.2188 61.9688 16.0312 66.2969 16.0312 71.9844C16.0312 77.7344 17.2031 82.1094 19.5469 85.1094C21.9219 88.1094 25.2656 89.6094 29.5781 89.6094C34.0781 89.6094 38.4062 88.2812 42.5625 85.625L43.7344 94.9531C41.5781 96.3906 39.3438 97.4219 37.0312 98.0469C34.7188 98.6719 31.9688 98.9844 28.7812 98.9844ZM75.5625 89.6562C79.7188 89.6562 82.8438 88.1406 84.9375 85.1094C87.0312 82.0781 88.0781 77.7344 88.0781 72.0781C88.0781 66.3594 87.0312 62 84.9375 59C82.8438 56 79.6875 54.5 75.4688 54.5C71.3125 54.5 68.1719 56.0156 66.0469 59.0469C63.9531 62.0469 62.9062 66.4062 62.9062 72.125C62.9062 77.75 63.9688 82.0781 66.0938 85.1094C68.2188 88.1406 71.375 89.6562 75.5625 89.6562ZM75.2344 98.9844C67.6094 98.9844 61.6094 96.5156 57.2344 91.5781C52.8594 86.6406 50.6719 80.1406 50.6719 72.0781C50.6719 63.7656 52.8594 57.2188 57.2344 52.4375C61.6094 47.625 67.7812 45.2188 75.75 45.2188C83.4375 45.2188 89.4531 47.6719 93.7969 52.5781C98.1719 57.4531 100.359 63.9531 100.359 72.0781C100.359 80.2969 98.1562 86.8438 93.75 91.7188C89.3438 96.5625 83.1719 98.9844 75.2344 98.9844ZM113.672 98V54.6406H105.516L106.312 47.4219L113.672 46.4844V43.625C113.672 40.5 113.953 37.8281 114.516 35.6094C115.109 33.3906 116.062 31.5 117.375 29.9375C118.688 28.3438 120.438 27.1719 122.625 26.4219C124.844 25.6406 127.562 25.25 130.781 25.25C133.906 25.25 137.094 25.5469 140.344 26.1406L139.266 35.2812C136.703 34.9375 134.688 34.7656 133.219 34.7656C130.594 34.7656 128.719 35.4062 127.594 36.6875C126.5 37.9375 125.953 40.0312 125.953 42.9688V46.4844H148.406V43.625C148.406 37.3125 149.688 32.6719 152.25 29.7031C154.844 26.7344 159.266 25.25 165.516 25.25C168.578 25.25 171.766 25.5469 175.078 26.1406L174 35.2812C171.406 34.9375 169.391 34.7656 167.953 34.7656C165.297 34.7656 163.422 35.4062 162.328 36.6875C161.234 37.9375 160.688 40.0312 160.688 42.9688V46.4844H172.734V54.6406H160.688V98H148.406V54.6406H125.953V98H113.672ZM203.859 98.9844C195.578 98.9844 189.125 96.6094 184.5 91.8594C179.906 87.0781 177.609 80.4844 177.609 72.0781C177.609 63.8906 179.781 57.375 184.125 52.5312C188.469 47.6875 194.391 45.25 201.891 45.2188C208.984 45.2188 214.484 47.4375 218.391 51.875C222.328 56.3125 224.297 62.2031 224.297 69.5469C224.297 70.0781 224.281 70.9375 224.25 72.125C224.25 73.3125 224.25 74.1875 224.25 74.75H189.984C190.109 79.5625 191.422 83.2969 193.922 85.9531C196.453 88.5781 199.922 89.8906 204.328 89.8906C209.953 89.8906 215.359 88.4219 220.547 85.4844L222.281 94.2031C217.125 97.3906 210.984 98.9844 203.859 98.9844ZM190.219 67.0156H212.719C212.719 62.8281 211.766 59.6094 209.859 57.3594C207.953 55.1094 205.312 53.9844 201.938 53.9844C198.781 53.9844 196.109 55.0781 193.922 57.2656C191.766 59.4531 190.531 62.7031 190.219 67.0156ZM258.141 98.9844C249.859 98.9844 243.406 96.6094 238.781 91.8594C234.188 87.0781 231.891 80.4844 231.891 72.0781C231.891 63.8906 234.062 57.375 238.406 52.5312C242.75 47.6875 248.672 45.25 256.172 45.2188C263.266 45.2188 268.766 47.4375 272.672 51.875C276.609 56.3125 278.578 62.2031 278.578 69.5469C278.578 70.0781 278.562 70.9375 278.531 72.125C278.531 73.3125 278.531 74.1875 278.531 74.75H244.266C244.391 79.5625 245.703 83.2969 248.203 85.9531C250.734 88.5781 254.203 89.8906 258.609 89.8906C264.234 89.8906 269.641 88.4219 274.828 85.4844L276.562 94.2031C271.406 97.3906 265.266 98.9844 258.141 98.9844ZM244.5 67.0156H267C267 62.8281 266.047 59.6094 264.141 57.3594C262.234 55.1094 259.594 53.9844 256.219 53.9844C253.062 53.9844 250.391 55.0781 248.203 57.2656C246.047 59.4531 244.812 62.7031 244.5 67.0156Z" fill="#323232"/>
<path d="M306.656 98.7031C303.125 98.7031 300.188 98.2969 297.844 97.4844C295.531 96.6406 293.703 95.3125 292.359 93.5C291.016 91.6875 290.078 89.5312 289.547 87.0312C289.016 84.5312 288.75 81.4219 288.75 77.7031V27.5L301.031 26.7031V77.4688C301.031 82.0938 301.578 85.2344 302.672 86.8906C303.766 88.5156 305.891 89.3281 309.047 89.3281C310.609 89.3281 312.594 89.1562 315 88.8125L315.328 97.5781C315.297 97.5781 314.906 97.6562 314.156 97.8125C313.438 97.9688 312.734 98.0938 312.047 98.1875C311.391 98.3125 310.547 98.4219 309.516 98.5156C308.484 98.6406 307.531 98.7031 306.656 98.7031ZM335.016 98.9844C330.234 98.9844 326.359 97.6719 323.391 95.0469C320.453 92.3906 318.984 88.5781 318.984 83.6094C318.984 78.2656 320.734 74.3125 324.234 71.75C327.734 69.1562 333.016 67.5156 340.078 66.8281C341.047 66.7031 342.094 66.5781 343.219 66.4531C344.344 66.3281 345.609 66.2031 347.016 66.0781C348.422 65.9531 349.531 65.8438 350.344 65.75V63.0312C350.344 59.9062 349.625 57.6406 348.188 56.2344C346.75 54.7969 344.562 54.0781 341.625 54.0781C337.438 54.0781 332.266 55.25 326.109 57.5938C326.078 57.5 325.562 56.0781 324.562 53.3281C323.562 50.5781 323.047 49.1719 323.016 49.1094C329.078 46.5156 335.641 45.2188 342.703 45.2188C349.641 45.2188 354.688 46.7344 357.844 49.7656C361 52.7656 362.578 57.6406 362.578 64.3906V98H353.484C353.453 97.875 353.109 96.8281 352.453 94.8594C351.797 92.8906 351.469 91.8438 351.469 91.7188C348.906 94.2188 346.391 96.0625 343.922 97.25C341.484 98.4062 338.516 98.9844 335.016 98.9844ZM338.344 90.2656C341.188 90.2656 343.656 89.5938 345.75 88.25C347.875 86.875 349.391 85.2188 350.297 83.2812V73.3438C350.203 73.3438 349.375 73.4062 347.812 73.5312C346.281 73.6562 345.453 73.7188 345.328 73.7188C340.359 74.1562 336.719 75.0938 334.406 76.5312C332.094 77.9688 330.938 80.2812 330.938 83.4688C330.938 85.6562 331.578 87.3438 332.859 88.5312C334.141 89.6875 335.969 90.2656 338.344 90.2656ZM402.562 98.9844C399.062 98.9844 395.875 98.2188 393 96.6875C390.156 95.125 388.094 93.3594 386.812 91.3906L385.594 97.9531H374.953V27.5L387.234 26.7031V42.6406C387.234 45.7344 387.141 49.25 386.953 53.1875C391.016 47.875 396.312 45.2188 402.844 45.2188C409.406 45.2188 414.547 47.6562 418.266 52.5312C422.016 57.4062 423.891 63.7812 423.891 71.6562C423.891 79.8438 421.953 86.4531 418.078 91.4844C414.234 96.4844 409.062 98.9844 402.562 98.9844ZM399.609 89.6562C403.266 89.6562 406.188 88.1094 408.375 85.0156C410.562 81.9219 411.656 77.5312 411.656 71.8438C411.656 66.125 410.578 61.7969 408.422 58.8594C406.297 55.9219 403.406 54.4531 399.75 54.4531C391.438 54.4531 387.234 60.0625 387.141 71.2812C387.141 77.5938 388.188 82.2344 390.281 85.2031C392.375 88.1719 395.484 89.6562 399.609 89.6562Z" fill="#285430"/>
</svg>
