<svg width="1366" height="350" viewBox="0 0 1366 350" fill="none" xmlns="http://www.w3.org/2000/svg">
<mask id="mask0_153_2" style="mask-type:alpha" maskUnits="userSpaceOnUse" x="0" y="0" width="1366" height="350">
<rect width="1366" height="350" fill="#285430"/>
</mask>
<g mask="url(#mask0_153_2)">
<path d="M626.902 150C555.611 150 497.779 203.347 497.287 269.341H466.339C420.866 269.341 384 303.512 384 345.671C384 387.83 420.866 422 466.339 422H627V150C627 150 626.934 150 626.918 150H626.902Z" fill="white" stroke="#323232" stroke-miterlimit="10"/>
<path d="M261.112 91.2605C342.316 91.2605 408.19 152.234 408.75 227.664H444.002C495.798 227.664 537.791 266.72 537.791 314.907C537.791 363.093 495.798 402.149 444.002 402.149H261V91.2605C261 91.2605 261.075 91.2605 261.093 91.2605H261.112Z" fill="white" stroke="#323232" stroke-miterlimit="10"/>
<path d="M940.933 271.441H940.259V240.284C940.259 137.493 856.921 54.1545 754.13 54.1545C651.338 54.1545 568 137.493 568 240.284V462.085C568 470.015 568.562 477.832 569.528 485.492V647.115H734.093C740.674 647.811 747.368 648.215 754.152 648.215C760.936 648.215 767.608 647.833 774.212 647.115H940.978V271.441H940.933Z" fill="#323232"/>
<path d="M820.531 152.925H820.463C801.909 132.753 778.031 122.577 754.107 122.735C754.107 122.735 754.04 122.735 754.017 122.735C753.995 122.735 753.95 122.735 753.928 122.735C729.982 122.6 706.126 132.753 687.571 152.947H687.504L687.549 152.992L687.504 153.037H687.571C706.126 173.209 730.004 183.385 753.928 183.228C753.928 183.228 753.995 183.228 754.017 183.228C754.04 183.228 754.085 183.228 754.107 183.228C778.053 183.363 801.909 173.209 820.463 153.015H820.531L820.486 152.97L820.531 152.925Z" fill="white" stroke="#323232" stroke-miterlimit="10"/>
<path d="M777.101 158.383C780.116 145.608 772.205 132.808 759.43 129.793C746.655 126.778 733.855 134.689 730.84 147.464C727.825 160.239 735.737 173.039 748.511 176.054C761.286 179.069 774.086 171.157 777.101 158.383Z" fill="#323232"/>
<path d="M820.531 238.622H820.463C801.909 218.45 778.031 208.274 754.107 208.432C754.107 208.432 754.04 208.432 754.017 208.432C753.995 208.432 753.95 208.432 753.928 208.432C729.982 208.297 706.126 218.45 687.571 238.645H687.504L687.549 238.689L687.504 238.734H687.571C706.126 258.906 730.004 269.082 753.928 268.925C753.928 268.925 753.995 268.925 754.017 268.925C754.04 268.925 754.085 268.925 754.107 268.925C778.053 269.06 801.909 258.906 820.463 238.712H820.531L820.486 238.667L820.531 238.622Z" fill="white" stroke="#323232" stroke-miterlimit="10"/>
<path d="M777.101 244.087C780.116 231.313 772.204 218.513 759.43 215.497C746.655 212.482 733.855 220.394 730.84 233.169C727.825 245.943 735.736 258.743 748.511 261.758C761.286 264.774 774.086 256.862 777.101 244.087Z" fill="#323232"/>
<path d="M1081.88 96C996.51 96 927.254 159.938 926.665 239.034H889.603C835.149 239.034 791 279.988 791 330.517C791 381.046 835.149 422 889.603 422H1082V96C1082 96 1081.92 96 1081.9 96H1081.88Z" fill="white" stroke="#323232" stroke-miterlimit="10"/>
<path d="M1256.92 273C1197.95 273 1150.11 228.871 1149.71 174.28H1124.11C1086.49 174.28 1056 146.014 1056 111.14C1056 76.2658 1086.49 48 1124.11 48H1257V273C1257 273 1256.95 273 1256.93 273H1256.92Z" fill="white" stroke="#323232" stroke-miterlimit="10"/>
<path d="M0.134796 1C97.8289 1 177.08 74.548 177.754 165.533H220.165C282.479 165.533 333 212.643 333 270.767C333 328.89 282.479 376 220.165 376H-2.86102e-06V1C-2.86102e-06 1 0.0898349 1 0.112299 1H0.134796Z" fill="white" stroke="#323232" stroke-miterlimit="10"/>
<path d="M1017 350C1017 157.411 1173.37 1.04173 1365.96 1.04173H1370.89V350H1017Z" fill="#E5D9B6" stroke="#323232" stroke-miterlimit="10"/>
<path d="M1071.18 350C1071.18 186.883 1203.62 54.4437 1366.74 54.4437H1370.91V350H1071.18Z" fill="white" stroke="#323232" stroke-miterlimit="10"/>
<path d="M1141.78 350C1141.78 225.308 1243.01 124.083 1367.7 124.083H1370.89V350H1141.78Z" fill="#5F8D4E" stroke="#323232" stroke-miterlimit="10"/>
<path d="M1265.79 350C1265.79 292.761 1312.26 246.272 1369.52 246.272H1370.98V350H1265.79Z" fill="white" stroke="#323232" stroke-miterlimit="10"/>
<path d="M132.826 62.934C179.643 23.7663 246.556 24.4374 292.385 61.2751C295.69 63.9344 298.881 66.7837 301.958 69.8229C304.795 72.6342 307.543 75.5847 310.164 78.6999C312.785 81.8278 315.204 85.0443 317.458 88.3367C319.902 91.8951 322.144 95.5422 324.182 99.2652C352.358 150.868 341.215 216.857 294.398 256.025C247.582 295.193 180.669 294.522 134.84 257.684C131.535 255.025 128.344 252.175 125.266 249.136C122.43 246.325 119.682 243.374 117.061 240.246C114.439 237.119 112.021 233.902 109.766 230.61C107.322 227.051 105.081 223.404 103.042 219.681C74.8663 168.078 86.0101 102.089 132.826 62.9214V62.934Z" fill="#E5D9B6"/>
<mask id="mask1_153_2" style="mask-type:luminance" maskUnits="userSpaceOnUse" x="87" y="33" width="253" height="253">
<path d="M132.826 62.934C179.643 23.7663 246.556 24.4374 292.385 61.2751C295.69 63.9344 298.881 66.7837 301.958 69.8229C304.795 72.6342 307.543 75.5847 310.164 78.6999C312.785 81.8278 315.204 85.0443 317.458 88.3367C319.902 91.8951 322.144 95.5422 324.182 99.2652C352.358 150.868 341.215 216.857 294.398 256.025C247.582 295.193 180.669 294.522 134.84 257.684C131.535 255.025 128.344 252.175 125.266 249.136C122.43 246.325 119.682 243.374 117.061 240.246C114.439 237.119 112.021 233.902 109.766 230.61C107.322 227.051 105.081 223.404 103.042 219.681C74.8663 168.078 86.0101 102.089 132.826 62.9214V62.934Z" fill="white"/>
</mask>
<g mask="url(#mask1_153_2)">
<path d="M324.904 106.711C322.638 103.419 320.219 100.202 317.61 97.0744C314.989 93.9466 312.254 90.996 309.404 88.1974C306.327 85.1582 303.136 82.3089 299.831 79.6496C254.002 42.8119 187.089 42.1408 140.273 81.3085C99.9524 115.044 86.124 168.648 101.041 215.844C75.4615 164.849 87.1624 101.152 132.814 62.9467C179.63 23.7789 246.544 24.4501 292.372 61.2878C295.677 63.9471 298.869 66.7963 301.946 69.8355C304.782 72.6468 307.53 75.5974 310.152 78.7252C312.773 81.8531 315.192 85.0696 317.446 88.362C319.89 91.9204 322.131 95.5675 324.17 99.2905C328.083 106.458 331.211 113.904 333.617 121.527C332.971 120.236 332.312 118.944 331.616 117.665C329.577 113.942 327.336 110.295 324.892 106.737L324.904 106.711Z" fill="white"/>
<path d="M102.561 212.856C104.828 216.148 107.246 219.365 109.855 222.492C112.476 225.62 115.212 228.571 118.061 231.369C121.138 234.409 124.329 237.258 127.634 239.917C173.463 276.755 240.376 277.426 287.193 238.258C327.513 204.523 341.341 150.919 326.424 103.723C352.004 154.718 340.303 218.415 294.652 256.62C247.835 295.788 180.922 295.117 135.093 258.279C131.788 255.62 128.597 252.77 125.52 249.731C122.683 246.92 119.935 243.969 117.314 240.854C114.693 237.726 112.274 234.51 110.02 231.217C107.576 227.659 105.334 224.012 103.296 220.289C99.3825 213.121 96.2547 205.675 93.8486 198.052C94.4945 199.344 95.153 200.635 95.8495 201.914C97.8883 205.637 100.13 209.284 102.574 212.843L102.561 212.856Z" fill="#5F8D4E"/>
</g>
<path d="M132.826 62.934C179.643 23.7663 246.556 24.4374 292.385 61.2751C295.69 63.9344 298.881 66.7837 301.958 69.8229C304.795 72.6342 307.543 75.5847 310.164 78.6999C312.785 81.8278 315.204 85.0443 317.458 88.3367C319.902 91.8951 322.144 95.5422 324.182 99.2652C352.358 150.868 341.215 216.857 294.398 256.025C247.582 295.193 180.669 294.522 134.84 257.684C131.535 255.025 128.344 252.175 125.266 249.136C122.43 246.325 119.682 243.374 117.061 240.246C114.439 237.119 112.021 233.902 109.766 230.61C107.322 227.051 105.081 223.404 103.042 219.681C74.8663 168.078 86.0101 102.089 132.826 62.9214V62.934Z" stroke="#323232" stroke-miterlimit="10"/>
<path d="M103.042 219.706C105.081 223.429 107.322 227.077 109.766 230.635C96.6219 246.008 90.2269 256.823 93.1395 260.292C96.052 263.762 107.816 259.381 125.266 249.149C150.365 234.447 187.216 207.676 226.459 174.84C265.703 142.004 298.552 110.447 317.458 88.3367C330.603 72.9634 336.998 62.1489 334.085 58.6791C331.173 55.2094 319.408 59.5909 301.958 69.8229C298.881 66.7837 295.69 63.9344 292.385 61.2751C344.963 24.0828 383.51 3.7328 390.197 11.7234C396.883 19.714 370.062 54.0823 324.17 99.2652C298.666 124.389 267.286 152.831 232.436 181.995C197.587 211.146 164.054 237.017 134.827 257.697C82.249 294.889 43.7017 315.239 37.0155 307.248C30.3292 299.258 57.1502 264.889 103.042 219.706Z" fill="white" stroke="#323232" stroke-miterlimit="10"/>
<path d="M301.958 69.8228C300.933 68.8098 298.159 65.6946 297.108 64.7195C331.806 41.077 357.854 30.8703 362.211 36.0877C369.999 45.4332 313.533 108.712 232.816 175.942C152.1 243.172 77.7029 288.899 69.9149 279.553C65.774 274.589 78.7286 252.39 105.613 224.759C106.373 225.949 108.956 229.47 109.766 230.648C96.6219 246.021 90.2269 256.835 93.1395 260.305C96.052 263.788 107.816 259.393 125.266 249.161" stroke="#323232" stroke-width="0.75" stroke-miterlimit="10"/>
<path d="M453 324.275L407.61 325.54L422.82 282.825L386.826 310.478L374.01 267L361.174 310.478L325.18 282.825L340.41 325.54L295 324.275L332.463 349.9L332.322 350L415.678 350L415.537 349.9L453 324.275Z" fill="#323232" stroke="#323232" stroke-miterlimit="10"/>
</g>
</svg>
