<svg width="701" height="529" viewBox="0 0 701 529" fill="none" xmlns="http://www.w3.org/2000/svg">
<path d="M525.947 1.13531H350.905V176.177H525.947V1.13531Z" stroke="#323232" stroke-miterlimit="10"/>
<path d="M525.895 1.38828C480.052 1.38828 442.864 35.6673 442.548 78.0733H422.647C393.406 78.0733 369.7 100.03 369.7 127.12C369.7 154.21 393.406 176.167 422.647 176.167H525.958V1.38828C525.958 1.38828 525.916 1.38828 525.905 1.38828H525.895Z" fill="white" stroke="#323232" stroke-miterlimit="10"/>
<path d="M525.926 104.004C506.995 104.004 491.637 118.16 491.51 135.669H483.288C471.219 135.669 461.426 144.734 461.426 155.918C461.426 167.102 471.219 176.167 483.288 176.167H525.947V104.004C525.947 104.004 525.937 104.004 525.926 104.004Z" fill="white" stroke="#323232" stroke-miterlimit="10"/>
<path d="M526.148 350.977C571.99 350.977 609.178 316.698 609.494 274.292H629.396C658.636 274.292 682.343 252.335 682.343 225.245C682.343 198.155 658.636 176.199 629.396 176.199H526.084V350.967C526.084 350.967 526.126 350.967 526.137 350.967L526.148 350.977Z" fill="white" stroke="#323232" stroke-miterlimit="10"/>
<path d="M15.0932 243.281L14.4291 219.501L36.8496 227.469L22.3348 208.612L45.1558 201.897L22.3348 195.172L36.8496 176.315L14.4291 184.294L15.0932 160.503L1.64299 180.13L1.59029 180.057V223.727L1.64299 223.654L15.0932 243.281Z" fill="#323232" stroke="#323232" stroke-miterlimit="10"/>
<path d="M351.084 176.177H176.042C79.5402 176.177 1.27406 254.496 1.01054 351.209V351.705H1V528.18H176.042C272.281 528.18 350.294 449.956 350.294 353.454V351.694H351.095V176.177H351.084Z" fill="#5F8D4E"/>
<mask id="mask0_107_123" style="mask-type:luminance" maskUnits="userSpaceOnUse" x="1" y="176" width="351" height="353">
<path d="M351.084 176.177H176.042C79.5402 176.177 1.27406 254.496 1.01054 351.209V351.705H1V528.18H176.042C272.281 528.18 350.294 449.956 350.294 353.454V351.694H351.095V176.177H351.084Z" fill="white"/>
</mask>
<g mask="url(#mask0_107_123)">
<path d="M356.281 169.105H-1.66684V528.317H356.281V169.105Z" stroke="#323232" stroke-miterlimit="10"/>
<path d="M45.9886 446.035C83.9463 465.536 101.771 508.774 90.6082 548.25C89.8071 551.096 88.8373 553.932 87.7305 556.725C86.6975 559.318 85.5591 561.879 84.2625 564.409C82.966 566.939 81.5535 569.374 80.0567 571.714C78.4334 574.254 76.7047 576.679 74.8706 578.998C49.3933 611.127 3.94091 621.847 -34.0063 602.346C-71.9641 582.845 -89.7888 539.607 -78.6259 500.131C-77.8248 497.285 -76.8551 494.449 -75.7483 491.656C-74.7153 489.063 -73.5769 486.502 -72.2803 483.972C-70.9838 481.442 -69.5713 479.007 -68.0745 476.667C-66.4512 474.126 -64.7225 471.702 -62.8884 469.383C-37.411 437.254 8.04132 426.534 45.9886 446.035Z" fill="white" stroke="#323232" stroke-miterlimit="10"/>
<path d="M58.2898 467.718C62.4534 469.857 64.414 474.601 63.1913 478.933C63.107 479.249 63.0016 479.555 62.8751 479.861C62.7591 480.145 62.6326 480.43 62.4956 480.704C62.3586 480.978 62.2004 481.252 62.0318 481.505C61.8526 481.779 61.6629 482.053 61.4626 482.306C58.6692 485.837 53.6729 487.007 49.5092 484.868C45.3456 482.728 43.3849 477.984 44.6077 473.652C44.692 473.336 44.7974 473.03 44.9239 472.725C45.0399 472.44 45.1664 472.155 45.3034 471.881C45.4404 471.607 45.5985 471.333 45.7672 471.08C45.9464 470.806 46.1361 470.532 46.3364 470.279C49.1297 466.748 54.1261 465.578 58.2898 467.718Z" fill="#E5D9B6" stroke="#323232" stroke-miterlimit="10"/>
<path d="M28.6698 479.903C50.1838 490.96 60.2925 515.468 53.9575 537.846C53.5042 539.459 52.9561 541.061 52.3236 542.653C51.7439 544.118 51.0903 545.573 50.3525 547.006C49.6146 548.44 48.824 549.821 47.9702 551.149C47.0532 552.582 46.0729 553.963 45.0293 555.281C30.5883 573.496 4.82633 579.567 -16.6876 568.52C-38.2016 557.463 -48.3103 532.955 -41.9753 510.577C-41.522 508.964 -40.9739 507.362 -40.3414 505.77C-39.7617 504.305 -39.1081 502.85 -38.3703 501.417C-37.6324 499.983 -36.8418 498.602 -35.988 497.274C-35.071 495.841 -34.0907 494.46 -33.0471 493.142C-18.6061 474.928 7.15588 468.856 28.6698 479.903Z" stroke="#323232" stroke-miterlimit="10"/>
<path d="M386.702 95.1074C431.891 118.329 453.12 169.8 439.818 216.802C438.858 220.196 437.72 223.559 436.392 226.9C435.169 229.978 433.799 233.035 432.26 236.05C430.721 239.064 429.034 241.953 427.253 244.757C425.324 247.782 423.258 250.67 421.076 253.432C390.739 291.674 336.633 304.45 291.454 281.228C246.266 258.006 225.036 206.535 238.339 159.533C239.298 156.139 240.436 152.777 241.765 149.446C242.987 146.368 244.358 143.311 245.897 140.296C247.436 137.282 249.122 134.393 250.904 131.589C252.833 128.564 254.899 125.676 257.081 122.914C287.417 84.6719 341.524 71.8964 386.702 95.118V95.1074Z" fill="white" stroke="#323232" stroke-miterlimit="10"/>
<path d="M287.322 238.685C291.486 240.825 293.447 245.568 292.224 249.901C292.14 250.217 292.034 250.522 291.908 250.828C291.792 251.113 291.665 251.397 291.528 251.671C291.391 251.945 291.233 252.22 291.064 252.473C290.885 252.747 290.695 253.021 290.495 253.274C287.702 256.805 282.705 257.975 278.542 255.835C274.378 253.695 272.418 248.952 273.64 244.62C273.725 244.303 273.83 243.998 273.957 243.692C274.072 243.407 274.199 243.123 274.336 242.849C274.473 242.575 274.631 242.301 274.8 242.048C274.979 241.773 275.169 241.499 275.369 241.246C278.162 237.715 283.159 236.545 287.322 238.685Z" fill="#E5D9B6" stroke="#323232" stroke-miterlimit="10"/>
<path d="M172.785 294.763L209.214 241.584L207.433 306.02L268.17 284.411L228.852 335.493L290.685 353.707L228.852 371.932L268.17 423.014L207.433 401.405L209.214 465.841L172.785 412.663L136.345 465.841L138.137 401.405L77.4004 423.014L116.718 371.932L54.8851 353.707L116.718 335.493L77.4004 284.411L138.137 306.02L136.345 241.584L172.785 294.763Z" fill="#323232" stroke="#323232" stroke-miterlimit="10"/>
<path d="M172.806 383.401V383.369C181.808 375.084 186.351 364.438 186.288 353.749C186.288 353.749 186.288 353.718 186.288 353.707C186.288 353.697 186.288 353.676 186.288 353.665C186.351 342.987 181.819 332.33 172.806 324.045V324.014L172.785 324.035L172.764 324.014V324.045C163.762 332.33 159.219 342.977 159.282 353.665C159.282 353.665 159.282 353.697 159.282 353.707C159.282 353.718 159.282 353.739 159.282 353.749C159.219 364.427 163.751 375.084 172.764 383.369V383.401L172.785 383.38L172.806 383.401Z" fill="white" stroke="#323232" stroke-miterlimit="10"/>
<path d="M183.098 356.132C184.444 350.432 180.913 344.721 175.214 343.376C169.514 342.03 163.802 345.561 162.457 351.26C161.112 356.96 164.642 362.672 170.342 364.017C176.042 365.362 181.753 361.832 183.098 356.132Z" fill="#323232"/>
</g>
<path d="M351.084 176.177H176.042C79.5402 176.177 1.27406 254.496 1.01054 351.209V351.705H1V528.18H176.042C272.281 528.18 350.294 449.956 350.294 353.454V351.694H351.095V176.177H351.084Z" stroke="#323232" stroke-miterlimit="10"/>
<path d="M187.374 112.205C175.684 75.923 191.78 37.3644 223.845 19.487C226.164 18.201 228.557 17.0205 231.034 15.9453C233.321 14.9544 235.672 14.0585 238.096 13.2784C240.521 12.4984 242.956 11.8554 245.391 11.3178C248.026 10.7381 250.661 10.2954 253.296 9.98967C289.768 5.79439 325.333 27.7195 337.023 64.0012C348.713 100.283 332.617 138.842 300.551 156.719C298.232 158.005 295.839 159.186 293.362 160.261C291.075 161.252 288.724 162.148 286.3 162.928C283.876 163.708 281.441 164.351 279.006 164.888C276.37 165.468 273.735 165.911 271.1 166.216C234.628 170.412 199.063 148.487 187.374 112.205Z" fill="#5F8D4E" stroke="#323232" stroke-miterlimit="10"/>
<path d="M200.487 112.205C190.852 75.923 204.113 37.3644 230.56 19.487C232.468 18.201 234.449 17.0205 236.484 15.9453C238.37 14.9544 240.31 14.0585 242.313 13.2784C244.316 12.4984 246.318 11.8554 248.321 11.3178C250.493 10.7381 252.664 10.2954 254.835 9.98967C284.919 5.79439 314.244 27.7195 323.878 64.0012C333.513 100.283 320.252 138.842 293.805 156.719C291.897 158.005 289.915 159.186 287.881 160.261C285.994 161.252 284.055 162.148 282.052 162.928C280.06 163.708 278.046 164.351 276.044 164.888C273.872 165.468 271.701 165.911 269.529 166.216C239.446 170.412 210.121 148.487 200.487 112.205Z" fill="#5F8D4E" stroke="#323232" stroke-miterlimit="10"/>
<path d="M217.668 112.205C210.711 75.923 220.282 37.3644 239.372 19.487C240.753 18.201 242.176 17.0205 243.651 15.9453C245.011 14.9544 246.413 14.0585 247.857 13.2784C249.301 12.4984 250.746 11.8554 252.2 11.3178C253.771 10.7381 255.331 10.2954 256.901 9.98967C278.605 5.79439 299.771 27.7195 306.728 64.0012C313.685 100.283 304.114 138.842 285.025 156.719C283.644 158.005 282.221 159.186 280.745 160.261C279.385 161.252 277.983 162.148 276.539 162.928C275.095 163.708 273.651 164.351 272.196 164.888C270.626 165.468 269.066 165.911 267.495 166.216C245.791 170.412 224.625 148.487 217.668 112.205Z" fill="#5F8D4E" stroke="#323232" stroke-miterlimit="10"/>
<path d="M239.361 112.205C235.798 75.923 240.7 37.3644 250.482 19.487C251.188 18.201 251.916 17.0205 252.674 15.9453C253.37 14.9544 254.087 14.0585 254.825 13.2784C255.563 12.4984 256.301 11.8554 257.049 11.3178C257.85 10.7381 258.651 10.2954 259.463 9.98967C270.594 5.79439 281.441 27.7195 285.003 64.0012C288.566 100.283 283.665 138.842 273.883 156.719C273.177 158.005 272.449 159.186 271.69 160.261C270.995 161.252 270.278 162.148 269.54 162.928C268.802 163.708 268.064 164.351 267.316 164.888C266.515 165.468 265.714 165.911 264.902 166.216C253.771 170.412 242.924 148.487 239.361 112.205Z" fill="#5F8D4E" stroke="#323232" stroke-miterlimit="10"/>
<path d="M255.7 112.205C254.688 75.923 256.079 37.3644 258.862 19.487C259.062 18.201 259.273 17.0205 259.484 15.9453C259.684 14.9544 259.885 14.0585 260.095 13.2784C260.306 12.4984 260.517 11.8554 260.728 11.3178C260.96 10.7381 261.181 10.2954 261.413 9.98967C264.575 5.79439 267.653 27.7195 268.676 64.0012C269.688 100.283 268.296 138.842 265.513 156.719C265.313 158.005 265.102 159.186 264.891 160.261C264.691 161.252 264.491 162.148 264.28 162.928C264.069 163.708 263.858 164.351 263.648 164.888C263.416 165.468 263.194 165.911 262.962 166.216C259.8 170.412 256.722 148.487 255.7 112.205Z" fill="#5F8D4E" stroke="#323232" stroke-miterlimit="10"/>
<path d="M248.574 45.8393C269.066 39.2407 290.843 48.3269 300.941 66.4362C301.669 67.7433 302.333 69.103 302.944 70.4944C303.503 71.791 304.009 73.1191 304.451 74.4894C304.894 75.8597 305.252 77.2301 305.558 78.6109C305.885 80.0972 306.138 81.5835 306.307 83.0697C308.678 103.667 296.293 123.758 275.801 130.356C255.31 136.955 233.532 127.869 223.434 109.759C222.707 108.452 222.043 107.092 221.431 105.701C220.873 104.405 220.367 103.076 219.924 101.706C219.481 100.336 219.123 98.9654 218.817 97.5845C218.49 96.0983 218.237 94.612 218.069 93.1257C215.697 72.5288 228.083 52.4379 248.574 45.8393Z" fill="#323232" stroke="#323232" stroke-miterlimit="10"/>
<path d="M253.37 60.7125C266.652 56.4329 280.777 62.3252 287.322 74.0678C287.797 74.9111 288.229 75.7965 288.619 76.703C288.977 77.5463 289.304 78.4001 289.589 79.2855C289.873 80.171 290.105 81.0669 290.305 81.9524C290.516 82.9116 290.674 83.8814 290.79 84.8406C292.329 98.1959 284.297 111.214 271.016 115.494C257.734 119.773 243.609 113.881 237.063 102.138C236.589 101.295 236.157 100.409 235.767 99.503C235.408 98.6597 235.082 97.8059 234.797 96.9205C234.513 96.035 234.27 95.139 234.08 94.2536C233.87 93.2944 233.711 92.3246 233.595 91.3654C232.056 78.0101 240.089 64.9921 253.37 60.7125Z" fill="white" stroke="#323232" stroke-miterlimit="10"/>
<path d="M245.138 80.308C245.254 81.2672 245.412 82.237 245.623 83.1962C245.823 84.0922 246.055 84.9776 246.339 85.863C246.624 86.7485 246.951 87.6128 247.309 88.4456C247.699 89.3521 248.131 90.227 248.606 91.0808C255.152 102.823 269.266 108.716 282.558 104.436C284.403 103.846 286.131 103.066 287.765 102.149C290.664 96.9837 291.982 90.9438 291.275 84.83C291.159 83.8708 291.001 82.9011 290.79 81.9418C290.59 81.0459 290.358 80.1604 290.074 79.275C289.789 78.3895 289.462 77.5252 289.104 76.6925C288.714 75.7859 288.282 74.9111 287.807 74.0572C281.261 62.3147 267.147 56.4223 253.855 60.7019C252.01 61.2922 250.282 62.0722 248.648 62.9893C245.749 68.1543 244.432 74.1943 245.138 80.308Z" fill="white" stroke="#323232" stroke-miterlimit="10"/>
<mask id="mask1_107_123" style="mask-type:luminance" maskUnits="userSpaceOnUse" x="525" y="175" width="176" height="354">
<path d="M700.958 175.492H525.536V528.18H700.958V175.492Z" fill="white"/>
</mask>
<g mask="url(#mask1_107_123)">
<path d="M853.4 337.495H762.759C762.664 337.495 762.633 337.379 762.717 337.327L841.689 291.727C849.469 287.236 852.135 277.296 847.645 269.517C843.155 261.738 833.214 259.071 825.435 263.562L754.137 304.724C754.052 304.766 753.968 304.671 754.021 304.597L799.652 236.071C804.628 228.597 802.604 218.499 795.13 213.524C787.657 208.549 777.559 210.572 772.583 218.046L718.171 299.748C718.118 299.822 718.013 299.791 718.013 299.696V202.076C718.013 192.358 710.055 184.515 700.367 185.327C692.03 186.033 685.494 193.011 685.494 201.528V297.693C685.494 297.777 685.378 297.819 685.336 297.746L633.633 216.665C628.805 209.097 618.749 206.873 611.181 211.7C603.613 216.528 601.388 226.584 606.216 234.152L653.777 308.74C653.829 308.814 653.745 308.908 653.661 308.866L576.069 266.376C568.195 262.065 558.308 264.953 553.997 272.827C549.685 280.701 552.574 290.588 560.448 294.9L637.902 337.316C637.986 337.358 637.955 337.485 637.86 337.485H550.096C540.378 337.485 532.535 345.443 533.347 355.13C534.053 363.468 541.031 370.004 549.548 370.004H640.738C640.833 370.004 640.864 370.119 640.78 370.172L561.807 415.772C554.028 420.263 551.361 430.203 555.852 437.982C560.342 445.761 570.282 448.428 578.061 443.937L649.36 402.775C649.444 402.733 649.529 402.828 649.476 402.902L603.844 471.428C598.869 478.902 600.893 489 608.367 493.975C615.84 498.95 625.938 496.927 630.914 489.453L685.326 407.75C685.378 407.677 685.484 407.708 685.484 407.803V505.422C685.484 515.141 693.442 522.984 703.129 522.172C711.467 521.466 718.002 514.488 718.002 505.971V409.806C718.002 409.722 718.118 409.679 718.171 409.753L769.579 490.37C774.807 498.56 785.738 500.9 793.465 495.008C800.116 489.938 801.876 480.525 797.302 473.347L749.741 398.759C749.688 398.685 749.773 398.59 749.857 398.633L827.449 441.123C835.323 445.434 845.21 442.546 849.521 434.672C853.832 426.798 850.944 416.911 843.07 412.599L765.616 370.183C765.531 370.141 765.563 370.014 765.658 370.014H853.969C862.487 370.014 869.475 363.468 870.171 355.141C870.982 345.454 863.14 337.495 853.421 337.495H853.4Z" fill="#323232" stroke="#323232" stroke-miterlimit="10"/>
<path d="M764.319 353.718C746.842 334.713 724.359 325.141 701.812 325.278C701.812 325.278 701.759 325.278 701.727 325.278C701.696 325.278 701.675 325.278 701.643 325.278C679.096 325.141 656.623 334.723 639.135 353.728V353.802C656.612 372.807 679.096 382.379 701.643 382.241C701.643 382.241 701.696 382.241 701.727 382.241C701.759 382.241 701.78 382.241 701.812 382.241C724.359 382.379 746.832 372.797 764.319 353.802L764.351 353.76L764.319 353.718Z" fill="white" stroke="#323232" stroke-miterlimit="10"/>
<path d="M701.727 376.138C714.087 376.138 724.106 366.119 724.106 353.76C724.106 341.401 714.087 331.382 701.727 331.382C689.368 331.382 679.349 341.401 679.349 353.76C679.349 366.119 689.368 376.138 701.727 376.138Z" fill="#323232" stroke="#323232" stroke-miterlimit="10"/>
<path d="M689.405 349.965C692.694 349.965 695.361 347.299 695.361 344.01C695.361 340.72 692.694 338.054 689.405 338.054C686.116 338.054 683.449 340.72 683.449 344.01C683.449 347.299 686.116 349.965 689.405 349.965Z" fill="white" stroke="#323232" stroke-miterlimit="10"/>
</g>
<path d="M375.507 96.3829C338.193 84.3662 298.527 100.905 280.144 133.887C278.816 136.27 277.604 138.736 276.507 141.287C275.495 143.648 274.568 146.062 273.767 148.55C272.966 151.037 272.302 153.546 271.753 156.044C271.153 158.753 270.699 161.462 270.394 164.171C266.072 201.686 288.629 238.263 325.944 250.28C363.259 262.297 402.924 245.758 421.308 212.775C422.636 210.393 423.848 207.927 424.944 205.376C425.956 203.015 426.884 200.601 427.685 198.113C428.486 195.625 429.15 193.117 429.698 190.618C430.299 187.909 430.752 185.2 431.058 182.491C435.38 144.976 412.822 108.399 375.507 96.3829Z" fill="#E5D9B6"/>
<mask id="mask2_107_123" style="mask-type:luminance" maskUnits="userSpaceOnUse" x="269" y="92" width="163" height="163">
<path d="M375.507 96.3829C338.193 84.3662 298.527 100.905 280.144 133.887C278.816 136.27 277.604 138.736 276.507 141.287C275.495 143.648 274.568 146.062 273.767 148.55C272.966 151.037 272.302 153.546 271.753 156.044C271.153 158.753 270.699 161.462 270.394 164.171C266.072 201.686 288.629 238.263 325.944 250.28C363.259 262.297 402.924 245.758 421.308 212.775C422.636 210.393 423.848 207.927 424.944 205.376C425.956 203.015 426.884 200.601 427.685 198.113C428.486 195.625 429.15 193.117 429.698 190.618C430.299 187.909 430.752 185.2 431.058 182.491C435.38 144.976 412.822 108.399 375.507 96.3829Z" fill="white"/>
</mask>
<g mask="url(#mask2_107_123)">
<path d="M271.753 168.788C272.302 166.28 272.966 163.781 273.767 161.294C274.568 158.806 275.495 156.382 276.507 154.031C277.604 151.48 278.816 149.014 280.144 146.631C298.527 113.649 338.193 97.0996 375.508 109.127C407.636 119.478 428.802 148.044 431.311 179.73C434.231 143.206 411.895 108.115 375.508 96.3934C338.193 84.3768 298.527 100.915 280.144 133.898C278.816 136.28 277.604 138.747 276.507 141.298C275.495 143.659 274.568 146.073 273.767 148.56C272.966 151.048 272.302 153.557 271.753 156.055C271.153 158.764 270.699 161.473 270.394 164.182C269.793 169.389 269.73 174.586 270.13 179.698C270.204 178.771 270.278 177.843 270.394 176.915C270.71 174.206 271.163 171.497 271.753 168.788Z" fill="white"/>
<path d="M429.688 178.307C429.14 180.815 428.475 183.314 427.674 185.801C426.873 188.289 425.946 190.713 424.934 193.064C423.837 195.615 422.625 198.081 421.297 200.464C402.914 233.446 363.248 249.995 325.934 237.968C293.805 227.617 272.639 199.051 270.13 167.365C267.21 203.889 289.546 238.98 325.934 250.702C363.248 262.718 402.914 246.18 421.297 213.197C422.625 210.815 423.837 208.348 424.934 205.797C425.946 203.447 426.873 201.022 427.674 198.535C428.475 196.047 429.14 193.538 429.688 191.04C430.289 188.331 430.742 185.622 431.047 182.913C431.648 177.706 431.712 172.509 431.311 167.397C431.237 168.324 431.163 169.252 431.047 170.18C430.731 172.889 430.278 175.598 429.688 178.307Z" fill="#5F8D4E"/>
</g>
<path d="M375.507 96.3829C338.193 84.3662 298.527 100.905 280.144 133.887C278.816 136.27 277.604 138.736 276.507 141.287C275.495 143.648 274.568 146.062 273.767 148.55C272.966 151.037 272.302 153.546 271.753 156.044C271.153 158.753 270.699 161.462 270.394 164.171C266.072 201.686 288.629 238.263 325.944 250.28C363.259 262.297 402.924 245.758 421.308 212.775C422.636 210.393 423.848 207.927 424.944 205.376C425.956 203.015 426.884 200.601 427.685 198.113C428.486 195.625 429.15 193.117 429.698 190.618C430.299 187.909 430.752 185.2 431.058 182.491C435.38 144.976 412.822 108.399 375.507 96.3829Z" stroke="#323232" stroke-miterlimit="10"/>
<path d="M431.058 182.502C430.742 185.211 430.289 187.92 429.698 190.629C441.23 196.606 447.649 201.497 446.754 204.269C445.858 207.041 437.794 207.263 424.944 205.397C406.466 202.698 378.069 195.657 346.784 185.591C315.498 175.524 288.334 164.656 271.753 156.065C260.222 150.089 253.802 145.198 254.698 142.426C255.594 139.653 263.658 139.432 276.507 141.298C277.604 138.747 278.816 136.28 280.144 133.898C239.878 124.443 212.029 121.639 209.973 128.016C207.918 134.383 232.172 148.371 270.394 164.192C291.634 172.984 317.174 182.354 344.949 191.293C372.725 200.242 398.929 207.537 421.308 212.797C461.574 222.252 489.423 225.056 491.479 218.678C493.534 212.312 469.279 198.324 431.058 182.502Z" fill="white" stroke="#323232" stroke-miterlimit="10"/>
<path d="M276.507 141.287C276.876 140.433 277.772 137.914 278.162 137.081C251.8 131.379 233.838 131.589 232.51 135.743C230.127 143.184 279.006 167.218 343.263 187.751C407.52 208.285 462.839 217.551 465.211 210.109C466.476 206.156 453.415 196.068 430.742 186.107C430.573 187.003 429.888 189.712 429.688 190.608C441.22 196.585 447.639 201.476 446.743 204.248C445.847 207.02 437.783 207.242 424.934 205.376" stroke="#323232" stroke-width="0.75" stroke-miterlimit="10"/>
<mask id="mask3_107_123" style="mask-type:luminance" maskUnits="userSpaceOnUse" x="525" y="1" width="176" height="176">
<path d="M701 1.13531H525.958V176.177H701V1.13531Z" fill="white"/>
</mask>
<g mask="url(#mask3_107_123)">
<path d="M612.847 -34.1345C651.816 -66.7375 707.514 -66.1789 745.662 -35.5154C748.413 -33.3018 751.069 -30.9301 753.631 -28.4003C755.992 -26.0602 758.279 -23.6042 760.461 -21.0111C762.643 -18.4075 764.657 -15.7301 766.533 -12.9895C768.567 -10.0275 770.433 -6.99173 772.13 -3.8927C795.584 39.0615 786.308 93.9901 747.338 126.593C708.368 159.196 652.67 158.637 614.523 127.974C611.771 125.76 609.115 123.389 606.554 120.859C604.192 118.519 601.905 116.063 599.723 113.459C597.541 110.856 595.528 108.178 593.652 105.437C591.617 102.475 589.751 99.4397 588.054 96.3407C564.601 53.3865 573.877 -1.54208 612.847 -34.1451V-34.1345Z" fill="#E5D9B6"/>
<mask id="mask4_107_123" style="mask-type:luminance" maskUnits="userSpaceOnUse" x="575" y="-59" width="210" height="211">
<path d="M612.847 -34.1345C651.816 -66.7375 707.514 -66.1789 745.662 -35.5154C748.413 -33.3018 751.069 -30.9301 753.631 -28.4003C755.992 -26.0602 758.279 -23.6042 760.461 -21.0111C762.643 -18.4075 764.657 -15.7301 766.533 -12.9895C768.567 -10.0275 770.433 -6.99173 772.13 -3.8927C795.584 39.0615 786.308 93.9901 747.338 126.593C708.368 159.196 652.67 158.637 614.523 127.974C611.771 125.76 609.115 123.389 606.554 120.859C604.192 118.519 601.905 116.063 599.723 113.459C597.541 110.856 595.528 108.178 593.652 105.437C591.617 102.475 589.751 99.4397 588.054 96.3407C564.601 53.3865 573.877 -1.54208 612.847 -34.1451V-34.1345Z" fill="white"/>
</mask>
<g mask="url(#mask4_107_123)">
<path d="M772.731 2.30535C770.844 -0.435279 768.831 -3.11267 766.659 -5.71627C764.477 -8.31987 762.201 -10.7759 759.829 -13.1054C757.267 -15.6353 754.611 -18.007 751.86 -20.2205C713.712 -50.884 658.014 -51.4427 619.045 -18.8397C585.482 9.24126 573.972 53.8609 586.389 93.1468C565.096 50.6986 574.836 -2.3221 612.836 -34.124C651.806 -66.727 707.504 -66.1683 745.651 -35.5048C748.402 -33.2913 751.059 -30.9196 753.62 -28.3897C755.981 -26.0497 758.269 -23.5936 760.451 -20.99C762.633 -18.3864 764.646 -15.709 766.522 -12.9684C768.557 -10.0064 770.422 -6.97064 772.119 -3.87161C775.377 2.09454 777.98 8.29259 779.983 14.6382C779.445 13.563 778.897 12.4879 778.318 11.4232C776.62 8.32421 774.755 5.28843 772.72 2.32644L772.731 2.30535Z" fill="white"/>
<path d="M587.654 90.6592C589.541 93.3998 591.554 96.0772 593.725 98.6808C595.907 101.284 598.184 103.74 600.556 106.07C603.117 108.6 605.774 110.971 608.525 113.185C646.672 143.849 702.37 144.407 741.34 111.804C774.902 83.7232 786.413 39.1036 773.996 -0.182297C795.288 42.2659 785.549 95.2866 747.549 127.089C708.579 159.691 652.881 159.133 614.733 128.469C611.982 126.256 609.326 123.884 606.764 121.354C604.403 119.014 602.116 116.558 599.934 113.965C597.752 111.361 595.739 108.684 593.862 105.943C591.828 102.981 589.962 99.9457 588.265 96.8467C585.008 90.8805 582.404 84.6825 580.402 78.3368C580.939 79.412 581.487 80.4872 582.067 81.5518C583.764 84.6509 585.63 87.6866 587.664 90.6486L587.654 90.6592Z" fill="#5F8D4E"/>
</g>
<path d="M612.847 -34.1345C651.816 -66.7375 707.514 -66.1789 745.662 -35.5154C748.413 -33.3018 751.069 -30.9301 753.631 -28.4003C755.992 -26.0602 758.279 -23.6042 760.461 -21.0111C762.643 -18.4075 764.657 -15.7301 766.533 -12.9895C768.567 -10.0275 770.433 -6.99173 772.13 -3.8927C795.584 39.0615 786.308 93.9901 747.338 126.593C708.368 159.196 652.67 158.637 614.523 127.974C611.771 125.76 609.115 123.389 606.554 120.859C604.192 118.519 601.905 116.063 599.723 113.459C597.541 110.856 595.528 108.178 593.652 105.437C591.617 102.475 589.751 99.4397 588.054 96.3407C564.601 53.3865 573.877 -1.54208 612.847 -34.1451V-34.1345Z" stroke="#323232" stroke-miterlimit="10"/>
<path d="M588.054 96.3618C589.751 99.4608 591.617 102.497 593.652 105.459C582.71 118.255 577.387 127.257 579.811 130.145C582.236 133.034 592.028 129.386 606.554 120.869C627.446 108.631 658.12 86.3479 690.786 59.0154C723.452 31.6828 750.795 5.41491 766.533 -12.9895C777.474 -25.7862 782.797 -34.7881 780.373 -37.6763C777.949 -40.5645 768.156 -36.9173 753.631 -28.4003C751.069 -30.9301 748.413 -33.3018 745.662 -35.5154C789.428 -66.474 821.514 -83.4133 827.08 -76.7619C832.645 -70.1106 810.32 -41.5026 772.119 -3.8927C750.89 17.0204 724.77 40.6953 695.761 64.971C666.753 89.2361 638.84 110.771 614.512 127.984C570.746 158.943 538.66 175.882 533.094 169.231C527.528 162.58 549.854 133.972 588.054 96.3618Z" fill="white" stroke="#323232" stroke-miterlimit="10"/>
<path d="M753.631 -28.4003C752.777 -29.2435 750.468 -31.8366 749.594 -32.6483C778.476 -52.3281 800.158 -60.8241 803.784 -56.4812C810.267 -48.702 763.265 3.97082 696.077 59.9324C628.89 115.894 566.962 153.957 560.479 146.178C557.032 142.046 567.816 123.568 590.194 100.568C590.827 101.558 592.977 104.489 593.652 105.469C582.71 118.266 577.387 127.268 579.811 130.156C582.236 133.055 592.028 129.397 606.554 120.88" stroke="#323232" stroke-width="0.75" stroke-miterlimit="10"/>
</g>
<path d="M526.274 351.378H525.958V336.758C525.958 288.522 486.851 249.416 438.616 249.416C390.381 249.416 351.274 288.522 351.274 336.758V440.838C351.274 444.559 351.538 448.228 351.991 451.822V527.664H429.213C432.302 527.991 435.443 528.18 438.626 528.18C441.81 528.18 444.94 528.001 448.039 527.664H526.295V351.378H526.274Z" fill="#323232"/>
<path d="M561.86 527.948L497.413 508.954L538.754 455.248L474.898 477.963L476.774 410.206L438.458 466.126L400.152 410.206L402.028 477.963L338.161 455.248L379.513 508.954L315.056 527.948" fill="#E5D9B6"/>
<path d="M561.86 527.948L497.413 508.954L538.754 455.248L474.898 477.963L476.774 410.206L438.458 466.126L400.152 410.206L402.028 477.963L338.161 455.248L379.513 508.954L315.056 527.948" stroke="#323232" stroke-miterlimit="10"/>
<path d="M469.775 295.764H469.743C461.036 286.298 449.831 281.523 438.605 281.597C438.605 281.597 438.574 281.597 438.563 281.597C438.553 281.597 438.532 281.597 438.521 281.597C427.284 281.534 416.09 286.298 407.383 295.775H407.352L407.373 295.796L407.352 295.817H407.383C416.09 305.282 427.295 310.057 438.521 309.984C438.521 309.984 438.553 309.984 438.563 309.984C438.574 309.984 438.595 309.984 438.605 309.984C449.842 310.047 461.036 305.282 469.743 295.806H469.775L469.754 295.785L469.775 295.764Z" fill="white" stroke="#323232" stroke-miterlimit="10"/>
<path d="M449.395 298.325C450.81 292.33 447.098 286.324 441.103 284.909C435.109 283.494 429.102 287.207 427.687 293.201C426.272 299.196 429.985 305.202 435.98 306.617C441.974 308.032 447.981 304.319 449.395 298.325Z" fill="#323232"/>
<path d="M469.775 335.977H469.743C461.036 326.512 449.831 321.737 438.605 321.811C438.605 321.811 438.574 321.811 438.563 321.811C438.553 321.811 438.532 321.811 438.521 321.811C427.284 321.747 416.09 326.512 407.383 335.988H407.352L407.373 336.009L407.352 336.03H407.383C416.09 345.496 427.295 350.271 438.521 350.197C438.521 350.197 438.553 350.197 438.563 350.197C438.574 350.197 438.595 350.197 438.605 350.197C449.842 350.26 461.036 345.496 469.743 336.02H469.775L469.754 335.999L469.775 335.977Z" fill="white" stroke="#323232" stroke-miterlimit="10"/>
<path d="M449.395 338.542C450.81 332.548 447.098 326.541 441.103 325.126C435.108 323.711 429.102 327.424 427.687 333.418C426.272 339.413 429.985 345.42 435.979 346.834C441.974 348.249 447.98 344.537 449.395 338.542Z" fill="#323232"/>
</svg>
