<svg width="75" height="75" viewBox="0 0 75 75" fill="none" xmlns="http://www.w3.org/2000/svg">
<rect width="75" height="75" rx="20" fill="#285430"/>
<path d="M38.0436 4.34783L42.9801 22.0084L57.525 10.5755L50.9678 27.7181L69.5652 26.8799L54.019 36.9565L69.5652 47.0333L50.9678 46.1949L57.525 63.3376L42.9801 51.9047L38.0436 69.5652L33.1069 51.9047L18.562 63.3376L25.1192 46.1949L6.52174 47.0333L22.0682 36.9565L6.52174 26.8799L25.1192 27.7181L18.562 10.5755L33.1069 22.0084L38.0436 4.34783Z" fill="white"/>
<path fill-rule="evenodd" clip-rule="evenodd" d="M38.0435 42.3913C43.4106 42.3913 48.0677 39.4722 50.3863 37.7136C51.3205 37.0051 51.3205 35.821 50.3863 35.1125C48.0677 33.3539 43.4106 30.4348 38.0435 30.4348C32.6764 30.4348 28.0193 33.3539 25.7007 35.1125C24.7664 35.821 24.7664 37.0051 25.7007 37.7136C28.0193 39.4722 32.6764 42.3913 38.0435 42.3913ZM38.0435 40.5839C40.7544 40.5839 42.952 38.7166 42.952 36.413C42.952 34.1095 40.7544 32.2422 38.0435 32.2422C35.3326 32.2422 33.135 34.1095 33.135 36.413C33.135 38.7166 35.3326 40.5839 38.0435 40.5839Z" fill="#285430"/>
</svg>
